{
	"asset":{
		"generator":"Khronos glTF Blender I/O v4.0.43",
		"version":"2.0"
	},
	"extensionsUsed":[
		"KHR_materials_specular",
		"KHR_materials_ior"
	],
	"scene":0,
	"scenes":[
		{
			"name":"Scene",
			"nodes":[
				0
			]
		}
	],
	"nodes":[
		{
			"mesh":0,
			"name":"Cilindro",
			"rotation":[
				0.7413623332977295,
				-0.3223956823348999,
				0.38058391213417053,
				0.4489975869655609
			]
		}
	],
	"materials":[
		{
			"doubleSided":true,
			"extensions":{
				"KHR_materials_specular":{
					"specularFactor":0
				},
				"KHR_materials_ior":{
					"ior":1.4500000476837158
				}
			},
			"name":"Material.003",
			"pbrMetallicRoughness":{
				"baseColorFactor":[
					0.800000011920929,
					0.800000011920929,
					0.800000011920929,
					1
				],
				"metallicFactor":0
			}
		}
	],
	"meshes":[
		{
			"name":"Cilindro",
			"primitives":[
				{
					"attributes":{
						"POSITION":0,
						"NORMAL":1,
						"TEXCOORD_0":2
					},
					"indices":3,
					"material":0
				}
			]
		}
	],
	"accessors":[
		{
			"bufferView":0,
			"componentType":5126,
			"count":40000,
			"max":[
				0.4384790062904358,
				0.6631450057029724,
				0.947206974029541
			],
			"min":[
				-1.2804900407791138,
				-0.28794801235198975,
				-0.9144350290298462
			],
			"type":"VEC3"
		},
		{
			"bufferView":1,
			"componentType":5126,
			"count":40000,
			"type":"VEC3"
		},
		{
			"bufferView":2,
			"componentType":5126,
			"count":40000,
			"type":"VEC2"
		},
		{
			"bufferView":3,
			"componentType":5123,
			"count":60000,
			"type":"SCALAR"
		}
	],
	"bufferViews":[
		{
			"buffer":0,
			"byteLength":480000,
			"byteOffset":0,
			"target":34962
		},
		{
			"buffer":0,
			"byteLength":480000,
			"byteOffset":480000,
			"target":34962
		},
		{
			"buffer":0,
			"byteLength":320000,
			"byteOffset":960000,
			"target":34962
		},
		{
			"buffer":0,
			"byteLength":120000,
			"byteOffset":1280000,
			"target":34963
		}
	],
	"buffers":[
		{
			"byteLength":1400000,
			"uri":"untitled.bin"
		}
	]
}
